<svg xmlns="http://www.w3.org/2000/svg" version="1.1" xmlns:xlink="http://www.w3.org/1999/xlink" xmlns:svgjs="http://svgjs.dev/svgjs" width="1500" height="1500" viewBox="0 0 1500 1500"><rect width="1500" height="1500" fill="#010536"></rect><g transform="matrix(0.6666666666666666,0,0,0.6666666666666666,248.56056617756713,348.7096774193549)"><svg viewBox="0 0 310 248" data-background-color="#010536" preserveAspectRatio="xMidYMid meet" height="1200" width="1500" xmlns="http://www.w3.org/2000/svg" xmlns:xlink="http://www.w3.org/1999/xlink"><g id="tight-bounds" transform="matrix(1,0,0,1,0.4462244849542003,0.4000000000000057)"><svg viewBox="0 0 309.1075510300916 247.2" height="247.2" width="309.1075510300916"><g><svg viewBox="0 0 397.4975999999999 317.88743559497914" height="247.2" width="309.1075510300916"><g transform="matrix(1,0,0,1,0,247.62916761559305)"><svg viewBox="0 0 397.4975999999999 70.25826797938606" height="70.25826797938606" width="397.4975999999999"><g id="textblocktransform"><svg viewBox="0 0 397.4975999999999 70.25826797938606" height="70.25826797938606" width="397.4975999999999" id="textblock"><g><rect width="397.4975999999999" height="3.2516521390783066" x="0" y="39.88742114585226" fill="#2ecc40" opacity="1" stroke-width="0" stroke="transparent" fill-opacity="1" class="rect-yte-0" data-fill-palette-color="primary" rx="1%" id="yte-0" data-palette-color="#2ecc40"></rect></g><g transform="matrix(1,0,0,1,0.9887999999999693,0)"><svg viewBox="0 0 395.52 36.05694087730451" height="36.05694087730451" width="395.52"><g transform="matrix(1,0,0,1,0,0)"><svg width="395.52" viewBox="4.49 -35.01 384.01 35.01" height="36.05694087730451" data-palette-color="#2ecc40"><path d="M4.49-5L4.49-30Q4.49-31.03 4.88-31.95 5.27-32.86 5.96-33.53 6.64-34.2 7.56-34.61 8.47-35.01 9.5-35.01L9.5-35.01 28.49-35.01Q29.52-35.01 30.43-34.61 31.35-34.2 32.03-33.53 32.71-32.86 33.11-31.95 33.5-31.03 33.5-30L33.5-30 33.5-25.49 28.49-25.49 28.49-30 9.5-30 9.5-5 28.49-5 28.49-13.5 18.99-13.5 18.99-18.51 33.5-18.51 33.5-5Q33.5-3.98 33.11-3.06 32.71-2.15 32.03-1.46 31.35-0.78 30.43-0.39 29.52 0 28.49 0L28.49 0 9.5 0Q8.47 0 7.56-0.39 6.64-0.78 5.96-1.46 5.27-2.15 4.88-3.06 4.49-3.98 4.49-5L4.49-5ZM70.14-26.49L70.14-22.51Q70.14-15.19 63.89-14.16L63.89-14.16 70.48 0 64.94 0 58.44-13.99 47.48-13.99 47.48 0 42.48 0 42.48-35.01 61.64-35.01Q70.14-35.01 70.14-26.49L70.14-26.49ZM47.48-30L47.48-18.99 61.37-18.99Q63.38-18.99 64.26-19.87 65.13-20.75 65.13-22.75L65.13-22.75 65.13-26.25Q65.13-28.25 64.26-29.13 63.38-30 61.37-30L61.37-30 47.48-30ZM108.49-30L108.49-5Q108.49-3.98 108.1-3.06 107.71-2.15 107.03-1.46 106.34-0.78 105.43-0.39 104.51 0 103.49 0L103.49 0 83.49 0Q82.47 0 81.55-0.39 80.63-0.78 79.95-1.46 79.27-2.15 78.88-3.06 78.49-3.98 78.49-5L78.49-5 78.49-30Q78.49-31.03 78.88-31.95 79.27-32.86 79.95-33.53 80.63-34.2 81.55-34.61 82.47-35.01 83.49-35.01L83.49-35.01 103.49-35.01Q104.51-35.01 105.43-34.61 106.34-34.2 107.03-33.53 107.71-32.86 108.1-31.95 108.49-31.03 108.49-30L108.49-30ZM103.49-30L83.49-30 83.49-5 103.49-5 103.49-30ZM117.47-5L117.47-30Q117.47-31.03 117.86-31.95 118.25-32.86 118.94-33.53 119.62-34.2 120.54-34.61 121.45-35.01 122.48-35.01L122.48-35.01 141.47-35.01Q142.5-35.01 143.41-34.61 144.33-34.2 145.01-33.53 145.7-32.86 146.09-31.95 146.48-31.03 146.48-30L146.48-30 146.48-25.49 141.47-25.49 141.47-30 122.48-30 122.48-5 141.47-5 141.47-9.5 146.48-9.5 146.48-5Q146.48-3.98 146.09-3.06 145.7-2.15 145.01-1.46 144.33-0.78 143.41-0.39 142.5 0 141.47 0L141.47 0 122.48 0Q121.45 0 120.54-0.39 119.62-0.78 118.94-1.46 118.25-2.15 117.86-3.06 117.47-3.98 117.47-5L117.47-5ZM154.48 0L154.48-35.01 179.99-35.01 179.99-30 159.49-30 159.49-20 176.99-20 176.99-14.99 159.49-14.99 159.49-5 179.99-5 179.99 0 154.48 0ZM184.75-35.01L190.78-35.01 200.13-21.9 209.53-35.01 215.59-35.01 203.19-17.65 215.86 0 209.8 0 200.13-13.45 190.54 0 184.48 0 197.16-17.65 184.75-35.01ZM226.84 0L221.84 0 221.84-35.01 241-35.01Q249.5-35.01 249.5-26.49L249.5-26.49 249.5-21.51Q249.5-12.99 241-12.99L241-12.99 226.84-12.99 226.84 0ZM226.84-30L226.84-17.99 240.73-17.99Q242.73-17.99 243.61-18.87 244.49-19.75 244.49-21.75L244.49-21.75 244.49-26.25Q244.49-28.25 243.61-29.13 242.73-30 240.73-30L240.73-30 226.84-30ZM284.14-26.49L284.14-22.51Q284.14-15.19 277.89-14.16L277.89-14.16 284.48 0 278.94 0 272.44-13.99 261.48-13.99 261.48 0 256.48 0 256.48-35.01 275.64-35.01Q284.14-35.01 284.14-26.49L284.14-26.49ZM261.48-30L261.48-18.99 275.37-18.99Q277.38-18.99 278.25-19.87 279.13-20.75 279.13-22.75L279.13-22.75 279.13-26.25Q279.13-28.25 278.25-29.13 277.38-30 275.37-30L275.37-30 261.48-30ZM292.48 0L292.48-35.01 318-35.01 318-30 297.49-30 297.49-20 314.99-20 314.99-14.99 297.49-14.99 297.49-5 318-5 318 0 292.48 0ZM347.49-14.99L330.5-14.99Q329.47-14.99 328.55-15.39 327.64-15.8 326.96-16.47 326.27-17.14 325.88-18.05 325.49-18.97 325.49-20L325.49-20 325.49-30Q325.49-31.03 325.88-31.95 326.27-32.86 326.96-33.53 327.64-34.2 328.55-34.61 329.47-35.01 330.5-35.01L330.5-35.01 347.49-35.01Q348.51-35.01 349.43-34.61 350.34-34.2 351.03-33.53 351.71-32.86 352.1-31.95 352.49-31.03 352.49-30L352.49-30 352.49-25.49 347.49-25.49 347.49-30 330.5-30 330.5-20 347.49-20Q348.51-20 349.43-19.6 350.34-19.21 351.03-18.53 351.71-17.85 352.1-16.93 352.49-16.02 352.49-14.99L352.49-14.99 352.49-5Q352.49-3.98 352.1-3.06 351.71-2.15 351.03-1.46 350.34-0.78 349.43-0.39 348.51 0 347.49 0L347.49 0 330.01 0Q328.98 0 328.07-0.39 327.15-0.78 326.47-1.46 325.78-2.15 325.39-3.06 325-3.98 325-5L325-5 325-9.5 330.01-9.5 330.01-5 347.49-5 347.49-14.99ZM383.5-14.99L366.5-14.99Q365.48-14.99 364.56-15.39 363.65-15.8 362.96-16.47 362.28-17.14 361.89-18.05 361.5-18.97 361.5-20L361.5-20 361.5-30Q361.5-31.03 361.89-31.95 362.28-32.86 362.96-33.53 363.65-34.2 364.56-34.61 365.48-35.01 366.5-35.01L366.5-35.01 383.5-35.01Q384.52-35.01 385.44-34.61 386.35-34.2 387.04-33.53 387.72-32.86 388.11-31.95 388.5-31.03 388.5-30L388.5-30 388.5-25.49 383.5-25.49 383.5-30 366.5-30 366.5-20 383.5-20Q384.52-20 385.44-19.6 386.35-19.21 387.04-18.53 387.72-17.85 388.11-16.93 388.5-16.02 388.5-14.99L388.5-14.99 388.5-5Q388.5-3.98 388.11-3.06 387.72-2.15 387.04-1.46 386.35-0.78 385.44-0.39 384.52 0 383.5 0L383.5 0 366.02 0Q364.99 0 364.07-0.39 363.16-0.78 362.48-1.46 361.79-2.15 361.4-3.06 361.01-3.98 361.01-5L361.01-5 361.01-9.5 366.02-9.5 366.02-5 383.5-5 383.5-14.99Z" opacity="1" transform="matrix(1,0,0,1,0,0)" fill="#2ecc40" class="wordmark-text-0" data-fill-palette-color="primary" id="text-0"></path></svg></g></svg></g><g transform="matrix(1,0,0,1,0.9887999999999408,46.96955355347831)"><svg viewBox="0 0 395.52000000000004 23.288714425907752" height="23.288714425907752" width="395.52000000000004"><g transform="matrix(1,0,0,1,0,0)"><svg width="395.52000000000004" viewBox="2.05 -33.33 742.9300000000001 43.75" height="23.288714425907752" data-palette-color="#ffdc00"><path d="M11.28 0.63L11.28 0.63Q8.47 0.63 5.99-0.45 3.51-1.53 2.05-3.06L2.05-3.06 3.61-9.44Q4.76-7.36 6.91-5.92 9.06-4.48 11.49-4.48L11.49-4.48Q13.54-4.48 14.76-5.66 15.97-6.84 15.97-8.51L15.97-8.51Q15.97-9.86 15.35-10.73 14.72-11.6 13.89-12.14 13.06-12.67 12.47-12.95L12.47-12.95 8.75-14.83Q7.33-15.56 5.9-16.58 4.48-17.6 3.52-19.22 2.57-20.83 2.57-23.23L2.57-23.23Q2.57-25.8 3.75-27.74 4.93-29.69 7.07-30.78 9.2-31.88 12.05-31.88L12.05-31.88Q14.76-31.88 16.86-30.99 18.96-30.1 20.24-29.13L20.24-29.13 18.75-22.85Q17.5-24.55 15.63-25.69 13.75-26.84 11.77-26.84L11.77-26.84Q10-26.84 8.99-25.89 7.99-24.93 7.99-23.51L7.99-23.51Q7.99-22.57 8.42-21.88 8.85-21.18 9.58-20.68 10.31-20.17 11.15-19.76L11.15-19.76 14.9-17.88Q15.76-17.47 16.86-16.77 17.95-16.08 18.99-15.02 20.03-13.96 20.71-12.45 21.39-10.94 21.39-8.85L21.39-8.85Q21.39-6.18 20.14-4.03 18.89-1.88 16.63-0.63 14.38 0.63 11.28 0.63ZM34.72 0.49L34.72 0.49Q31.87 0.49 29.51-0.99 27.15-2.47 25.74-4.95 24.34-7.43 24.34-10.42L24.34-10.42Q24.34-13.44 25.74-15.9 27.15-18.37 29.51-19.84 31.87-21.32 34.72-21.32L34.72-21.32Q36.77-21.32 38.5-20.59 40.24-19.86 41.46-18.58L41.46-18.58 41.46-20.83 46.25-20.83 46.25 0 41.46 0 41.46-2.29Q40.24-1.01 38.5-0.26 36.77 0.49 34.72 0.49ZM35.38-4.34L35.38-4.34Q37.05-4.34 38.38-5.17 39.72-6.01 40.52-7.38 41.32-8.75 41.32-10.42L41.32-10.42Q41.32-12.08 40.52-13.45 39.72-14.83 38.38-15.66 37.05-16.49 35.41-16.49L35.41-16.49Q33.75-16.49 32.41-15.66 31.07-14.83 30.28-13.45 29.48-12.08 29.48-10.42L29.48-10.42Q29.48-8.75 30.28-7.38 31.07-6.01 32.41-5.17 33.75-4.34 35.38-4.34ZM56.8 0L51.35 0 51.35-33.33 56.8-33.33 56.8-18.92Q57.95-20.17 59.46-20.82 60.97-21.46 62.67-21.46L62.67-21.46Q64.89-21.46 66.82-20.4 68.75-19.34 69.94-17.29 71.14-15.24 71.14-12.36L71.14-12.36 71.14 0 65.65 0 65.65-11.63Q65.65-13.54 64.51-15.03 63.36-16.53 61.25-16.53L61.25-16.53Q59.51-16.53 58.15-15.33 56.8-14.13 56.8-11.7L56.8-11.7 56.8 0ZM85.06 0.49L85.06 0.49Q82.21 0.49 79.85-0.99 77.49-2.47 76.09-4.95 74.68-7.43 74.68-10.42L74.68-10.42Q74.68-13.44 76.09-15.9 77.49-18.37 79.85-19.84 82.21-21.32 85.06-21.32L85.06-21.32Q87.11-21.32 88.85-20.59 90.58-19.86 91.8-18.58L91.8-18.58 91.8-20.83 96.59-20.83 96.59 0 91.8 0 91.8-2.29Q90.58-1.01 88.85-0.26 87.11 0.49 85.06 0.49ZM85.72-4.34L85.72-4.34Q87.39-4.34 88.73-5.17 90.06-6.01 90.86-7.38 91.66-8.75 91.66-10.42L91.66-10.42Q91.66-12.08 90.86-13.45 90.06-14.83 88.73-15.66 87.39-16.49 85.76-16.49L85.76-16.49Q84.09-16.49 82.75-15.66 81.42-14.83 80.62-13.45 79.82-12.08 79.82-10.42L79.82-10.42Q79.82-8.75 80.62-7.38 81.42-6.01 82.75-5.17 84.09-4.34 85.72-4.34ZM113.15 0.49L113.15 0.49Q111.14 0.49 109.43-0.24 107.73-0.97 106.45-2.22L106.45-2.22 106.45 0 101.69 0 101.69-33.33 107.14-33.33 107.14-19.24Q108.36-20.24 109.87-20.78 111.38-21.32 113.15-21.32L113.15-21.32Q116.07-21.32 118.43-19.86 120.79-18.4 122.19-15.92 123.6-13.44 123.6-10.42L123.6-10.42Q123.6-7.43 122.19-4.95 120.79-2.47 118.43-0.99 116.07 0.49 113.15 0.49ZM112.49-4.34L112.49-4.34Q114.16-4.34 115.49-5.17 116.83-6.01 117.63-7.38 118.43-8.75 118.43-10.42L118.43-10.42Q118.43-12.08 117.63-13.45 116.83-14.83 115.49-15.66 114.16-16.49 112.52-16.49L112.52-16.49Q110.86-16.49 109.52-15.66 108.18-14.83 107.39-13.45 106.59-12.08 106.59-10.42L106.59-10.42Q106.59-8.75 107.39-7.38 108.18-6.01 109.52-5.17 110.86-4.34 112.49-4.34ZM136.79 0.49L136.79 0.49Q133.95 0.49 131.58-0.99 129.22-2.47 127.82-4.95 126.41-7.43 126.41-10.42L126.41-10.42Q126.41-13.44 127.82-15.9 129.22-18.37 131.58-19.84 133.95-21.32 136.79-21.32L136.79-21.32Q138.84-21.32 140.58-20.59 142.31-19.86 143.53-18.58L143.53-18.58 143.53-20.83 148.32-20.83 148.32 0 143.53 0 143.53-2.29Q142.31-1.01 140.58-0.26 138.84 0.49 136.79 0.49ZM137.45-4.34L137.45-4.34Q139.12-4.34 140.46-5.17 141.79-6.01 142.59-7.38 143.39-8.75 143.39-10.42L143.39-10.42Q143.39-12.08 142.59-13.45 141.79-14.83 140.46-15.66 139.12-16.49 137.49-16.49L137.49-16.49Q135.82-16.49 134.48-15.66 133.15-14.83 132.35-13.45 131.55-12.08 131.55-10.42L131.55-10.42Q131.55-8.75 132.35-7.38 133.15-6.01 134.48-5.17 135.82-4.34 137.45-4.34ZM161.3 0L155.85 0 155.85-16.46 151.76-16.46 151.76-20.83 155.96-20.83 155.96-27.78 161.2-27.78 161.2-20.83 165.61-20.83 165.61-16.46 161.3-16.46 161.3 0ZM174.5 0L169.05 0 169.05-20.83 173.98-20.83 173.98-18.26Q175.09-19.83 176.77-20.64 178.45-21.46 180.36-21.46L180.36-21.46Q182.59-21.46 184.51-20.4 186.44-19.34 187.64-17.29 188.84-15.24 188.84-12.36L188.84-12.36 188.84 0 183.35 0 183.35-11.63Q183.35-13.54 182.2-15.03 181.06-16.53 178.94-16.53L178.94-16.53Q177.2-16.53 175.85-15.33 174.5-14.13 174.5-11.7L174.5-11.7 174.5 0ZM198.8 10.42L192.9 10.42 199.81-3.44 191.23-20.83 197.27-20.83 201.16-12.85Q201.65-11.77 202.06-10.83 202.48-9.9 202.79-8.89L202.79-8.89Q203.17-9.9 203.59-10.83 204.01-11.77 204.56-12.85L204.56-12.85 208.49-20.83 214.32-20.83 198.8 10.42ZM226.37 0.49L226.37 0.49Q223.52 0.49 221.16-0.99 218.8-2.47 217.39-4.95 215.98-7.43 215.98-10.42L215.98-10.42Q215.98-13.44 217.39-15.9 218.8-18.37 221.16-19.84 223.52-21.32 226.37-21.32L226.37-21.32Q228.41-21.32 230.15-20.59 231.89-19.86 233.1-18.58L233.1-18.58 233.1-20.83 237.89-20.83 237.89 0 233.1 0 233.1-2.29Q231.89-1.01 230.15-0.26 228.41 0.49 226.37 0.49ZM227.03-4.34L227.03-4.34Q228.69-4.34 230.03-5.17 231.37-6.01 232.16-7.38 232.96-8.75 232.96-10.42L232.96-10.42Q232.96-12.08 232.16-13.45 231.37-14.83 230.03-15.66 228.69-16.49 227.06-16.49L227.06-16.49Q225.39-16.49 224.06-15.66 222.72-14.83 221.92-13.45 221.12-12.08 221.12-10.42L221.12-10.42Q221.12-8.75 221.92-7.38 222.72-6.01 224.06-5.17 225.39-4.34 227.03-4.34ZM278.55 0L271.85 0 259.97-19.27 269.14-31.25 275.67-31.25 266.5-19.38 278.55 0ZM260.11 0L254.45 0 254.45-31.25 260.11-31.25 260.11 0ZM286.53 0L281.05 0 281.05-20.83 286.53-20.83 286.53 0ZM283.79-24.03L283.79-24.03Q282.5-24.03 281.62-24.91 280.73-25.8 280.73-27.08L280.73-27.08Q280.73-28.4 281.62-29.27 282.5-30.14 283.79-30.14L283.79-30.14Q285.11-30.14 285.98-29.27 286.84-28.4 286.84-27.08L286.84-27.08Q286.84-25.8 285.98-24.91 285.11-24.03 283.79-24.03ZM297.15 0L291.7 0 291.7-20.83 296.63-20.83 296.63-17.19Q297.71-19.03 299.41-20.03 301.11-21.04 303.4-21.04L303.4-21.04 304.62-16.11Q303.96-16.32 303.13-16.32L303.13-16.32Q300.42-16.32 298.79-14.58 297.15-12.85 297.15-9.65L297.15-9.65 297.15 0ZM313.12 0L307.64 0 307.64-20.83 313.12-20.83 313.12 0ZM310.38-24.03L310.38-24.03Q309.1-24.03 308.21-24.91 307.33-25.8 307.33-27.08L307.33-27.08Q307.33-28.4 308.21-29.27 309.1-30.14 310.38-30.14L310.38-30.14Q311.7-30.14 312.57-29.27 313.44-28.4 313.44-27.08L313.44-27.08Q313.44-25.8 312.57-24.91 311.7-24.03 310.38-24.03ZM323.75 0L318.3 0 318.3-20.83 323.23-20.83 323.23-18.37Q324.34-19.9 326-20.68 327.67-21.46 329.51-21.46L329.51-21.46Q331.42-21.46 333.09-20.64 334.75-19.83 335.87-18.3L335.87-18.3Q337.08-19.86 338.92-20.66 340.76-21.46 342.88-21.46L342.88-21.46Q345.14-21.46 347.08-20.42 349.02-19.38 350.24-17.4 351.46-15.42 351.46-12.64L351.46-12.64 351.46 0 345.97 0 345.97-11.88Q345.97-13.85 344.84-15.17 343.71-16.49 341.8-16.49L341.8-16.49Q340.73-16.49 339.75-16.01 338.78-15.52 338.19-14.51 337.6-13.51 337.6-11.94L337.6-11.94 337.6 0 332.12 0 332.12-11.88Q332.12-13.19 331.59-14.25 331.07-15.31 330.14-15.92 329.2-16.53 327.95-16.53L327.95-16.53Q326.91-16.53 325.93-16.02 324.96-15.52 324.35-14.51 323.75-13.51 323.75-11.94L323.75-11.94 323.75 0ZM373.12 0L367.6 0 367.6-31.25 376.59-31.25Q379.82-31.25 382.06-30.3 384.3-29.34 385.67-27.76 387.04-26.18 387.68-24.36 388.33-22.53 388.33-20.73L388.33-20.73Q388.33-18.99 387.7-17.17 387.08-15.35 385.69-13.77 384.3-12.19 382.08-11.23 379.85-10.28 376.59-10.28L376.59-10.28 373.12-10.28 373.12 0ZM373.12-26.32L373.12-15.21 376.28-15.21Q378.67-15.21 380.04-16.04 381.42-16.88 382.02-18.14 382.63-19.41 382.63-20.76L382.63-20.76Q382.63-22.05 382.06-23.33 381.49-24.62 380.1-25.47 378.71-26.32 376.28-26.32L376.28-26.32 373.12-26.32ZM401.31 0.49L401.31 0.49Q398.46 0.49 396.1-0.99 393.74-2.47 392.33-4.95 390.93-7.43 390.93-10.42L390.93-10.42Q390.93-13.44 392.33-15.9 393.74-18.37 396.1-19.84 398.46-21.32 401.31-21.32L401.31-21.32Q403.36-21.32 405.09-20.59 406.83-19.86 408.05-18.58L408.05-18.58 408.05-20.83 412.84-20.83 412.84 0 408.05 0 408.05-2.29Q406.83-1.01 405.09-0.26 403.36 0.49 401.31 0.49ZM401.97-4.34L401.97-4.34Q403.64-4.34 404.97-5.17 406.31-6.01 407.11-7.38 407.91-8.75 407.91-10.42L407.91-10.42Q407.91-12.08 407.11-13.45 406.31-14.83 404.97-15.66 403.64-16.49 402-16.49L402-16.49Q400.34-16.49 399-15.66 397.66-14.83 396.86-13.45 396.07-12.08 396.07-10.42L396.07-10.42Q396.07-8.75 396.86-7.38 397.66-6.01 399-5.17 400.34-4.34 401.97-4.34ZM438.25 0L431.72 0 423.15-11.46 430.2-20.83 436.17-20.83 429.19-11.91 438.25 0ZM423.39 0L417.94 0 417.94-33.33 423.39-33.33 423.39 0ZM451.41 0.63L451.41 0.63Q447.97 0.63 445.31-0.83 442.66-2.29 441.18-4.84 439.71-7.4 439.71-10.63L439.71-10.63Q439.71-13.75 441.15-16.18 442.59-18.61 445.05-20.03 447.52-21.46 450.51-21.46L450.51-21.46Q453.56-21.46 455.97-20.07 458.39-18.68 459.81-16.27 461.23-13.85 461.23-10.8L461.23-10.8 461.23-8.82 448.28-8.82Q447.42-8.82 446.58-8.92 445.75-9.03 444.92-9.17L444.92-9.17Q445.33-6.91 447.1-5.47 448.87-4.03 451.55-4.03L451.55-4.03Q453.53-4.03 455.12-4.84 456.72-5.66 457.76-6.91L457.76-6.91 459.01-1.81Q457.45-0.59 455.51 0.02 453.56 0.63 451.41 0.63ZM444.78-12.53L444.78-12.53Q446.55-12.88 448.28-12.88L448.28-12.88 452.76-12.88Q453.7-12.88 454.53-12.83 455.37-12.78 456.13-12.6L456.13-12.6Q455.61-14.62 454.1-15.83 452.59-17.05 450.47-17.05L450.47-17.05Q448.39-17.05 446.86-15.8 445.33-14.55 444.78-12.53ZM472.86 0L467.41 0 467.41-16.46 463.32-16.46 463.32-20.83 467.52-20.83 467.52-27.78 472.76-27.78 472.76-20.83 477.17-20.83 477.17-16.46 472.86-16.46 472.86 0ZM498.14 0L492.3 0 492.3-31.25 498.14-31.25 498.14 0ZM510.01 0L504.56 0 504.56-20.83 509.49-20.83 509.49-18.26Q510.6-19.83 512.28-20.64 513.97-21.46 515.88-21.46L515.88-21.46Q518.1-21.46 520.03-20.4 521.95-19.34 523.15-17.29 524.35-15.24 524.35-12.36L524.35-12.36 524.35 0 518.86 0 518.86-11.63Q518.86-13.54 517.72-15.03 516.57-16.53 514.45-16.53L514.45-16.53Q512.72-16.53 511.36-15.33 510.01-14.13 510.01-11.7L510.01-11.7 510.01 0ZM536.92 0L531.47 0 531.47-16.46 527.37-16.46 527.37-20.83 531.57-20.83 531.57-27.78 536.81-27.78 536.81-20.83 541.22-20.83 541.22-16.46 536.92-16.46 536.92 0ZM555.21 0.63L555.21 0.63Q551.78 0.63 549.12-0.83 546.46-2.29 544.99-4.84 543.51-7.4 543.51-10.63L543.51-10.63Q543.51-13.75 544.95-16.18 546.39-18.61 548.86-20.03 551.32-21.46 554.31-21.46L554.31-21.46Q557.37-21.46 559.78-20.07 562.19-18.68 563.62-16.27 565.04-13.85 565.04-10.8L565.04-10.8 565.04-8.82 552.09-8.82Q551.22-8.82 550.39-8.92 549.55-9.03 548.72-9.17L548.72-9.17Q549.14-6.91 550.91-5.47 552.68-4.03 555.35-4.03L555.35-4.03Q557.33-4.03 558.93-4.84 560.53-5.66 561.57-6.91L561.57-6.91 562.82-1.81Q561.25-0.59 559.31 0.02 557.37 0.63 555.21 0.63ZM548.58-12.53L548.58-12.53Q550.35-12.88 552.09-12.88L552.09-12.88 556.57-12.88Q557.5-12.88 558.34-12.83 559.17-12.78 559.93-12.6L559.93-12.6Q559.41-14.62 557.9-15.83 556.39-17.05 554.28-17.05L554.28-17.05Q552.19-17.05 550.66-15.8 549.14-14.55 548.58-12.53ZM574.24 0L568.79 0 568.79-20.83 573.72-20.83 573.72-17.19Q574.79-19.03 576.5-20.03 578.2-21.04 580.49-21.04L580.49-21.04 581.7-16.11Q581.04-16.32 580.21-16.32L580.21-16.32Q577.5-16.32 575.87-14.58 574.24-12.85 574.24-9.65L574.24-9.65 574.24 0ZM590.14 0L584.69 0 584.69-20.83 589.62-20.83 589.62-18.26Q590.73-19.83 592.41-20.64 594.1-21.46 596.01-21.46L596.01-21.46Q598.23-21.46 600.16-20.4 602.08-19.34 603.28-17.29 604.48-15.24 604.48-12.36L604.48-12.36 604.48 0 598.99 0 598.99-11.63Q598.99-13.54 597.85-15.03 596.7-16.53 594.58-16.53L594.58-16.53Q592.85-16.53 591.49-15.33 590.14-14.13 590.14-11.7L590.14-11.7 590.14 0ZM618.4 0.49L618.4 0.49Q615.55 0.49 613.19-0.99 610.83-2.47 609.42-4.95 608.02-7.43 608.02-10.42L608.02-10.42Q608.02-13.44 609.42-15.9 610.83-18.37 613.19-19.84 615.55-21.32 618.4-21.32L618.4-21.32Q620.45-21.32 622.18-20.59 623.92-19.86 625.14-18.58L625.14-18.58 625.14-20.83 629.93-20.83 629.93 0 625.14 0 625.14-2.29Q623.92-1.01 622.18-0.26 620.45 0.49 618.4 0.49ZM619.06-4.34L619.06-4.34Q620.73-4.34 622.06-5.17 623.4-6.01 624.2-7.38 625-8.75 625-10.42L625-10.42Q625-12.08 624.2-13.45 623.4-14.83 622.06-15.66 620.73-16.49 619.09-16.49L619.09-16.49Q617.43-16.49 616.09-15.66 614.75-14.83 613.96-13.45 613.16-12.08 613.16-10.42L613.16-10.42Q613.16-8.75 613.96-7.38 614.75-6.01 616.09-5.17 617.43-4.34 619.06-4.34ZM641.49 0.63L641.49 0.63Q639.51 0.63 637.42-0.05 635.34-0.73 634.09-1.98L634.09-1.98 635.48-7.26Q636.49-5.8 638.21-4.79 639.92-3.78 641.8-3.78L641.8-3.78Q643.15-3.78 643.8-4.34 644.44-4.9 644.44-5.73L644.44-5.73Q644.44-6.67 643.78-7.1 643.12-7.53 642.46-7.78L642.46-7.78 639.58-8.85Q638.67-9.24 637.46-9.88 636.24-10.52 635.36-11.72 634.47-12.92 634.47-14.86L634.47-14.86Q634.47-16.63 635.34-18.13 636.21-19.62 637.88-20.54 639.54-21.46 641.83-21.46L641.83-21.46Q643.92-21.46 645.83-20.75 647.74-20.03 648.71-18.99L648.71-18.99 647.39-13.85Q646.31-15.38 644.73-16.23 643.15-17.08 641.7-17.08L641.7-17.08Q640.52-17.08 639.91-16.55 639.3-16.01 639.3-15.28L639.3-15.28Q639.3-14.76 639.72-14.25 640.13-13.75 641.07-13.4L641.07-13.4 643.81-12.36Q644.89-11.98 646.17-11.3 647.46-10.63 648.38-9.41 649.3-8.19 649.3-6.08L649.3-6.08Q649.3-3.13 647.13-1.25 644.96 0.63 641.49 0.63ZM658.78 0L653.29 0 653.29-20.83 658.78-20.83 658.78 0ZM656.03-24.03L656.03-24.03Q654.75-24.03 653.86-24.91 652.98-25.8 652.98-27.08L652.98-27.08Q652.98-28.4 653.86-29.27 654.75-30.14 656.03-30.14L656.03-30.14Q657.35-30.14 658.22-29.27 659.09-28.4 659.09-27.08L659.09-27.08Q659.09-25.8 658.22-24.91 657.35-24.03 656.03-24.03ZM673.98 0.63L673.98 0.63Q670.89 0.63 668.34-0.87 665.79-2.36 664.29-4.86 662.8-7.36 662.8-10.42L662.8-10.42Q662.8-13.51 664.29-15.99 665.79-18.47 668.34-19.97 670.89-21.46 673.95-21.46L673.95-21.46Q677.07-21.46 679.61-19.97 682.14-18.47 683.65-15.99 685.16-13.51 685.16-10.42L685.16-10.42Q685.16-7.4 683.65-4.88 682.14-2.36 679.61-0.87 677.07 0.63 673.98 0.63ZM673.95-4.34L673.95-4.34Q675.65-4.34 677-5.16 678.36-5.97 679.16-7.36 679.95-8.75 679.95-10.42L679.95-10.42Q679.95-12.12 679.16-13.49 678.36-14.86 677-15.69 675.65-16.53 673.95-16.53L673.95-16.53Q672.28-16.53 670.93-15.69 669.57-14.86 668.77-13.49 667.98-12.12 667.98-10.42L667.98-10.42Q667.98-8.75 668.77-7.36 669.57-5.97 670.93-5.16 672.28-4.34 673.95-4.34ZM694.57 0L689.12 0 689.12-20.83 694.05-20.83 694.05-18.26Q695.16-19.83 696.84-20.64 698.53-21.46 700.44-21.46L700.44-21.46Q702.66-21.46 704.59-20.4 706.51-19.34 707.71-17.29 708.91-15.24 708.91-12.36L708.91-12.36 708.91 0 703.42 0 703.42-11.63Q703.42-13.54 702.28-15.03 701.13-16.53 699.01-16.53L699.01-16.53Q697.28-16.53 695.92-15.33 694.57-14.13 694.57-11.7L694.57-11.7 694.57 0ZM722.83 0.49L722.83 0.49Q719.98 0.49 717.62-0.99 715.26-2.47 713.86-4.95 712.45-7.43 712.45-10.42L712.45-10.42Q712.45-13.44 713.86-15.9 715.26-18.37 717.62-19.84 719.98-21.32 722.83-21.32L722.83-21.32Q724.88-21.32 726.62-20.59 728.35-19.86 729.57-18.58L729.57-18.58 729.57-20.83 734.36-20.83 734.36 0 729.57 0 729.57-2.29Q728.35-1.01 726.62-0.26 724.88 0.49 722.83 0.49ZM723.49-4.34L723.49-4.34Q725.16-4.34 726.49-5.17 727.83-6.01 728.63-7.38 729.43-8.75 729.43-10.42L729.43-10.42Q729.43-12.08 728.63-13.45 727.83-14.83 726.49-15.66 725.16-16.49 723.53-16.49L723.53-16.49Q721.86-16.49 720.52-15.66 719.19-14.83 718.39-13.45 717.59-12.08 717.59-10.42L717.59-10.42Q717.59-8.75 718.39-7.38 719.19-6.01 720.52-5.17 721.86-4.34 723.49-4.34ZM744.98 0L739.5 0 739.5-33.33 744.98-33.33 744.98 0Z" opacity="1" transform="matrix(1,0,0,1,0,0)" fill="#ffdc00" class="slogan-text-1" data-fill-palette-color="secondary" id="text-1"></path></svg></g></svg></g></svg></g></svg></g><g transform="matrix(1,0,0,1,47.018182938308655,0)"><svg viewBox="0 0 303.4612341233826 239.11698924104252" height="239.11698924104252" width="303.4612341233826"><g><svg xmlns="http://www.w3.org/2000/svg" xmlns:xlink="http://www.w3.org/1999/xlink" version="1.1" x="0" y="0" viewBox="5.208 14.624 89.792 70.753" enable-background="new 0 0 100 100" xml:space="preserve" height="239.11698924104252" width="303.4612341233826" class="icon-icon-0" data-fill-palette-color="accent" id="icon-0"><g fill="#2ecc40" data-fill-palette-color="accent"><polygon points="32.302,36.596 5.979,25.908 11.448,23.911 37.458,34.471  " fill="#2ecc40" data-fill-palette-color="accent"></polygon></g><g fill="#2ecc40" data-fill-palette-color="accent"><polygon points="44.692,31.671 18.37,20.983 23.838,18.986 49.849,29.546  " fill="#2ecc40" data-fill-palette-color="accent"></polygon></g><g fill="#2ecc40" data-fill-palette-color="accent"><polygon points="55.466,27.309 29.144,16.621 34.612,14.624 60.623,25.184  " fill="#2ecc40" data-fill-palette-color="accent"></polygon></g><g fill="#2ecc40" data-fill-palette-color="accent"><polygon points="31.531,47.455 7.105,37.538 5.208,32.566 31.499,43.226  " fill="#2ecc40" data-fill-palette-color="accent"></polygon></g><g fill="#2ecc40" data-fill-palette-color="accent"><polygon points="31.531,56.002 13.015,48.446 11.32,43.553 31.499,51.772  " fill="#2ecc40" data-fill-palette-color="accent"></polygon></g><g fill="#2ecc40" data-fill-palette-color="accent"><polygon points="31.531,64.634 21.308,60.437 19.025,55.304 31.499,60.404  " fill="#2ecc40" data-fill-palette-color="accent"></polygon></g><g fill="#2ecc40" data-fill-palette-color="accent"><path d="M35.526 72.919L64.871 85.376 64.872 51.977 35.526 39.506zM40.088 46.218L60.702 54.97V78.418L40.088 69.667z" fill="#2ecc40" data-fill-palette-color="accent"></path><path d="M83.089 44.584V44.157L81.933 44.651 83.089 44.15 82.587 43.946 94.498 38.895 65.264 27.309 36.06 38.882 65.264 51.293 77.507 46.101 78.041 46.318V46.725L65.655 51.978 65.654 85.377 95 72.919V39.532zM83.839 39.251L77.573 41.91 59.005 34.37 65.264 31.89zM65.264 47.137L46.688 39.252 53.748 36.454 72.496 44.067zM90.26 69.539L70.004 78.14V55.098L78.041 51.686V57.165L79.286 54.585 80.132 55.065 80.912 53.225 81.636 54.238 82.249 53.625 83.089 55.007V49.542L90.26 46.498z" fill="#2ecc40" data-fill-palette-color="accent"></path></g><path d="M87.667 57.529C87.667 58.825 86.615 60.316 85.317 60.86 84.021 61.401 82.969 60.79 82.969 59.493 82.969 58.194 84.021 56.703 85.317 56.162 86.615 55.619 87.667 56.231 87.667 57.529" fill="#2ecc40" data-fill-palette-color="accent"></path><path d="M80.641 60.467C80.641 61.763 79.589 63.253 78.29 63.796 76.994 64.339 75.942 63.725 75.942 62.429S76.994 59.64 78.29 59.098C79.589 58.557 80.641 59.169 80.641 60.467" fill="#2ecc40" data-fill-palette-color="accent"></path><path d="M81.579 70.204C77.99 71.704 74.922 70.421 74.285 67.154L76.023 66.115C76.507 68.604 78.845 69.582 81.579 68.439 84.316 67.295 86.653 64.365 87.138 61.47L88.876 61.056C88.239 64.856 85.171 68.704 81.579 70.204" fill="#2ecc40" data-fill-palette-color="accent"></path></svg></g></svg></g><g></g></svg></g><defs></defs></svg><rect width="309.1075510300916" height="247.2" fill="none" stroke="none" visibility="hidden"></rect></g></svg></g></svg>